<svg width="34" height="30" viewBox="0 0 34 30" fill="none" xmlns="http://www.w3.org/2000/svg">
<rect x="2" y="1" width="28" height="28" stroke="#17010C" stroke-width="2"/>
<path d="M3.40774 12.5688C2.79809 11.8189 1.6959 11.7051 0.945938 12.3148C0.195973 12.9244 0.0822244 14.0266 0.691873 14.7766L3.40774 12.5688ZM12.987 27.1272L11.6291 28.2311C11.9676 28.6474 12.4783 28.8855 13.0147 28.877C13.5512 28.8685 14.0541 28.6144 14.3792 28.1876L12.987 27.1272ZM33.3371 3.29667C33.9227 2.52779 33.7742 1.42975 33.0053 0.844144C32.2364 0.258534 31.1384 0.407105 30.5528 1.17599L33.3371 3.29667ZM0.691873 14.7766L11.6291 28.2311L14.345 26.0234L3.40774 12.5688L0.691873 14.7766ZM14.3792 28.1876L33.3371 3.29667L30.5528 1.17599L11.5949 26.0669L14.3792 28.1876Z" fill="#AD00C9"/>
</svg>
