<svg width="52" height="40" viewBox="0 0 52 40" fill="none" xmlns="http://www.w3.org/2000/svg">
<path d="M12.058 40C8.54106 40 5.62705 38.8148 3.31594 36.4444C1.10531 33.9753 0 30.716 0 26.6667C0 17.5802 3.01449 10.4691 9.04348 5.33333C11.656 2.96297 14.6705 1.18519 18.087 0L19.5942 3.7037C17.4841 4.39506 15.3739 5.53086 13.2638 7.11111C8.84251 10.3704 6.17971 14.6667 5.27536 20L7.23478 18.963C8.84251 18.1728 10.4502 17.7778 12.058 17.7778C15.0725 17.7778 17.685 18.9136 19.8957 21.1852C22.2068 23.358 23.3623 25.9259 23.3623 28.8889C23.3623 31.8519 22.2068 34.4691 19.8957 36.7407C17.685 38.9136 15.0725 40 12.058 40ZM40.6956 40C37.1787 40 34.2647 38.8148 31.9536 36.4444C29.743 33.9753 28.6377 30.716 28.6377 26.6667C28.6377 17.5802 31.6522 10.4691 37.6812 5.33333C40.1932 2.96297 43.2077 1.18519 46.7246 0L48.2319 3.7037C46.1217 4.39506 44.0116 5.53086 41.9014 7.11111C37.4802 10.3704 34.8174 14.6667 33.913 20L35.8725 18.963C37.4802 18.1728 39.0879 17.7778 40.6956 17.7778C43.7101 17.7778 46.3227 18.9136 48.5333 21.1852C50.8444 23.358 52 25.9259 52 28.8889C52 31.8519 50.8444 34.4691 48.5333 36.7407C46.3227 38.9136 43.7101 40 40.6956 40Z" fill="#E72787" fill-opacity="0.7"/>
</svg>
