<svg width="51" height="40" viewBox="0 0 51 40" fill="none" xmlns="http://www.w3.org/2000/svg">
<path d="M39.1739 2.78083e-06C42.6232 3.08237e-06 45.4812 1.18519 47.7478 3.55556C49.9159 6.0247 51 9.28395 51 13.3333C51 22.4198 48.0435 29.5309 42.1304 34.6667C39.5681 37.037 36.6116 38.8148 33.2609 40L31.7826 36.2963C33.8522 35.6049 35.9217 34.4691 37.9913 32.8889C42.3275 29.6296 44.9391 25.3333 45.8261 20L43.9043 21.037C42.3275 21.8272 40.7507 22.2222 39.1739 22.2222C36.2174 22.2222 33.6551 21.0864 31.487 18.8148C29.2203 16.642 28.087 14.0741 28.087 11.1111C28.087 8.14815 29.2203 5.53087 31.487 3.25926C33.6551 1.08642 36.2174 2.52236e-06 39.1739 2.78083e-06ZM11.087 3.25388e-07C14.5362 6.26933e-07 17.3942 1.18519 19.6609 3.55556C21.829 6.02469 22.913 9.28395 22.913 13.3333C22.913 22.4198 19.9565 29.5309 14.0435 34.6667C11.5797 37.037 8.62318 38.8148 5.17391 40L3.69565 36.2963C5.76521 35.6049 7.83478 34.4691 9.90434 32.8889C14.2406 29.6296 16.8522 25.3333 17.7391 20L15.8174 21.037C14.2406 21.8272 12.6638 22.2222 11.087 22.2222C8.13043 22.2222 5.56811 21.0864 3.4 18.8148C1.13333 16.642 -5.36288e-06 14.0741 -5.10385e-06 11.1111C-4.84482e-06 8.14815 1.13333 5.53086 3.4 3.25926C5.56811 1.08642 8.13043 6.69203e-08 11.087 3.25388e-07Z" fill="#E72787" fill-opacity="0.7"/>
</svg>
