<svg width="255" height="123" viewBox="0 0 255 123" fill="none" xmlns="http://www.w3.org/2000/svg">
<path d="M0 61.0366L3.6221 60.0499V17.9237L0 16.9369V15.9502H16.288C22.3995 15.9502 26.894 17.0167 29.7715 19.1447C32.6446 21.2727 34.0834 24.0485 34.0834 27.4722C34.0834 29.8394 33.4576 31.7531 32.2106 33.1984C30.9637 34.6486 29.3742 35.72 27.4466 36.4227C25.3958 37.2151 23.1851 37.6288 20.8099 37.6736V38.0025C23.7469 38.1371 26.3002 38.6155 28.4698 39.4527C30.6805 40.2451 32.5212 41.4711 33.992 43.1406C35.4582 44.8101 36.1936 46.9381 36.1936 49.5246C36.1936 53.4317 34.7274 56.4916 31.7904 58.7043C28.8535 60.922 24.0895 62.0284 17.4939 62.0284H0V61.0416V61.0366ZM16.288 37.0108C17.6172 37.0108 18.8504 36.6071 19.9969 35.7948C21.1434 34.9825 22.066 33.8412 22.774 32.3711C23.4774 30.9009 23.8291 29.2663 23.8291 27.4672C23.8291 25.5386 23.4774 23.8242 22.774 22.3342C22.0706 20.8441 21.1434 19.6779 19.9969 18.8457C18.8504 18.0134 17.6126 17.5948 16.288 17.5948H13.5703V37.0108H16.288ZM17.4939 60.3788C19.9878 60.3788 22.0203 59.412 23.587 57.4833C25.1537 55.5547 25.9393 52.8984 25.9393 49.5196C25.9393 46.1407 25.1537 43.4845 23.587 41.5558C22.0203 39.6272 19.9878 38.6604 17.4939 38.6604H13.5703V60.3838H17.4939V60.3788Z" fill="#FDFDFD"/>
<path d="M43.2041 58.0201C40.7236 55.348 39.4834 51.6662 39.4834 46.9642C39.4834 42.2622 40.7236 38.5803 43.2041 35.9082C45.6846 33.2362 49.1024 31.9001 53.4673 31.9001C57.8321 31.9001 61.25 33.2362 63.7305 35.9082C66.2109 38.5803 67.4512 42.2673 67.4512 46.9642C67.4512 51.661 66.2109 55.348 63.7305 58.0201C61.25 60.6921 57.8273 62.0282 53.4673 62.0282C49.1072 62.0282 45.6846 60.6921 43.2041 58.0201ZM57.0294 57.7094C57.9956 55.5862 58.4811 52.0079 58.4811 46.9693C58.4811 41.9307 57.9956 38.3525 57.0294 36.2293C56.0631 34.1062 54.8758 33.0446 53.4673 33.0446C52.0588 33.0446 50.8714 34.1062 49.9052 36.2293C48.939 38.3525 48.4535 41.9307 48.4535 46.9693C48.4535 52.0079 48.939 55.5914 49.9052 57.7094C50.8714 59.8325 52.0588 60.8941 53.4673 60.8941C54.8758 60.8941 56.0583 59.8325 57.0294 57.7094Z" fill="#FDFDFD"/>
<path d="M78.3071 60.7347C76.853 59.872 75.72 58.7434 74.9038 57.3489C74.0875 55.9544 73.6816 54.4847 73.6816 52.9448V35.3284L70.7422 34.5007V33.6731H77.1072C80.0467 33.6731 81.5142 35.3234 81.5142 38.629V52.9448C81.5142 55.2572 81.8799 57.0279 82.6159 58.2568C83.3519 59.4857 84.2083 60.1027 85.1851 60.1027C86.3894 60.1027 87.4867 59.3704 88.4635 57.9007C88.8248 57.3489 89.1995 56.6166 89.5876 55.6986V35.3284L86.6481 34.5007V33.6731H100.355V34.5007L97.4157 35.3284V61.4771H96.925C94.5431 61.4771 92.7322 60.7448 91.4922 59.2751C90.9391 58.613 90.5466 57.8806 90.3191 57.073C89.8597 57.991 89.3244 58.8186 88.7044 59.551C87.2369 61.2012 85.4081 62.0289 83.2225 62.0289C81.3937 62.0289 79.7567 61.5975 78.3026 60.7347H78.3071Z" fill="#FDFDFD"/>
<path d="M103.646 61.196L106.82 60.3587V35.8528L103.646 35.0154V34.1781H110.519C113.693 34.1781 115.278 35.8477 115.278 39.192V60.3536L118.452 61.191V62.0283H103.65V61.191L103.646 61.196ZM107.875 29.7276C107.171 28.9867 106.82 28.058 106.82 26.9415C106.82 25.8251 107.171 24.9015 107.875 24.1555C108.578 23.4146 109.459 23.0391 110.519 23.0391C111.579 23.0391 112.455 23.4095 113.163 24.1555C113.866 24.8964 114.223 25.8251 114.223 26.9415C114.223 28.058 113.871 28.9816 113.163 29.7276C112.46 30.4685 111.579 30.8389 110.519 30.8389C109.459 30.8389 108.583 30.4685 107.875 29.7276Z" fill="#FDFDFD"/>
<path d="M121.742 61.2048L124.564 60.3812V3.41924L121.742 2.59573V1.77222H127.852C130.673 1.77222 132.082 3.41425 132.082 6.7033V60.3812L134.904 61.2048V62.0283H121.746V61.2048H121.742Z" fill="#FDFDFD"/>
<path d="M138.194 101.968L141.369 101.151V1.6286L138.194 0.811823V0H145.068C148.242 0 149.827 1.6286 149.827 4.89074V101.156L153.001 101.973V102.79H138.199V101.973L138.194 101.968Z" fill="#FDFDFD"/>
<path d="M194.588 101.482C192.941 100.607 191.679 99.4081 190.793 97.8814C189.912 96.3548 189.471 94.6242 189.471 92.6947V16.1917H185.903V13.8793H189.471V4.91322C189.471 1.64105 190.997 0 194.055 0H197.618V13.8793H204.748V16.1917H197.618V92.6947C197.618 96.0415 197.942 98.334 198.587 99.5722C199.232 100.81 200.183 101.427 201.44 101.427C202.698 101.427 203.732 100.791 204.646 99.5175C205.565 98.2444 206.019 96.5139 206.019 94.3308H207.29C207.29 97.0211 206.664 99.1048 205.407 100.582C204.15 102.054 202.489 102.79 200.415 102.79C198.174 102.79 196.23 102.352 194.583 101.482H194.588Z" fill="#FDFDFD"/>
<path d="M215.973 101.482C214.326 100.607 213.064 99.4081 212.177 97.8814C211.296 96.3548 210.855 94.6242 210.855 92.6947V16.2912H207.291V13.8793H210.855V4.91322C210.855 1.64105 212.381 0 215.439 0H219.003V13.8793H226.135V16.2564H219.003V92.6947C219.003 96.0415 219.323 98.334 219.973 99.5722C220.618 100.81 221.569 101.427 222.827 101.427C224.084 101.427 225.119 100.791 226.033 99.5175C226.952 98.2444 227.407 96.5139 227.407 94.3308H228.678C228.678 97.0211 228.052 99.1048 226.794 100.582C225.537 102.054 223.875 102.79 221.801 102.79C219.56 102.79 217.616 102.352 215.968 101.482H215.973Z" fill="#FDFDFD"/>
<path d="M233.934 58.0194C231.523 55.3469 230.322 51.6644 230.322 46.9616C230.322 43.8902 230.846 41.2229 231.899 38.9492C232.951 36.6755 234.417 34.9352 236.299 33.7181C238.182 32.5061 240.347 31.9001 242.786 31.9001C245.225 31.9001 247.377 32.4129 249.222 33.4332C251.072 34.4535 252.496 35.8312 253.497 37.556C254.499 39.2807 255 41.1866 255 43.2687C255 44.2165 254.916 45.0297 254.745 45.7134L254.49 46.6819C253.029 47.0237 251.452 47.3086 249.755 47.5365C246.194 48.1062 242.596 48.3911 238.965 48.3911C238.965 52.7883 239.508 55.9218 240.593 57.7967C241.678 59.6716 243.171 60.609 245.072 60.609C246.394 60.609 247.622 60.2569 248.763 59.5576C249.899 58.8584 250.799 57.9262 251.462 56.7712C252.125 55.6162 252.454 54.4301 252.454 53.2182H253.725C253.725 54.7357 253.317 56.1756 252.505 57.5377C251.689 58.8999 250.553 59.9927 249.097 60.8059C247.641 61.619 245.958 62.0282 244.061 62.0282C239.717 62.0282 236.341 60.6919 233.934 58.0194ZM244.265 46.6819C244.84 46.6456 245.452 46.5472 246.097 46.397C246.129 46.2106 246.217 45.791 246.352 45.1488C246.523 44.201 246.607 43.1962 246.607 42.1345C246.607 38.9906 246.231 36.6858 245.489 35.2304C244.743 33.7699 243.843 33.0448 242.791 33.0448C240.245 33.0448 238.975 37.6854 238.975 46.9719C241.145 46.9719 242.911 46.8787 244.265 46.6871V46.6819Z" fill="#FDFDFD"/>
<path d="M71.2604 114.512C67.623 110.517 65.8066 104.833 65.8066 97.4704C65.8066 92.631 66.6034 88.478 68.2015 85.0065C69.7997 81.5349 72.0429 78.9078 74.931 77.1153C77.8191 75.3276 81.1625 74.4338 84.9612 74.4338C87.266 74.4338 89.5898 75.1252 91.9325 76.5177C92.8194 77.0214 93.7109 77.698 94.5978 78.5375C95.2854 77.4461 95.992 76.5819 96.7176 75.9499C97.4432 75.4017 97.851 75.1104 97.9317 75.0659H99.4445V87.0608H97.0211C96.4947 85.041 95.7075 83.209 94.6547 81.5695C93.6872 79.9695 92.4826 78.6461 91.0457 77.5943C89.6088 76.5424 87.9631 76.019 86.1041 76.019C83.3156 76.019 81.0013 77.7029 79.166 81.0707C77.3259 84.4386 76.4059 89.9052 76.4059 97.4803C76.4059 105.055 77.4066 110.68 79.4078 113.984C81.4091 117.287 84.1455 118.937 87.6217 118.937C89.5187 118.937 91.3302 118.379 93.047 117.263C94.7637 116.147 96.158 114.665 97.2298 112.813C98.3016 110.962 98.8375 109.006 98.8375 106.942H100.355C100.355 109.342 99.7385 111.584 98.5055 113.663C97.2725 115.747 95.5984 117.411 93.4738 118.65C91.354 119.89 88.997 120.512 86.4124 120.512C79.9485 120.512 74.8931 118.512 71.2604 114.517V114.512Z" fill="#FDFDFD"/>
<path d="M112.855 101.495C111.401 100.633 110.268 99.5041 109.452 98.1096C108.635 96.7151 108.229 95.2454 108.229 93.7055V76.0891L105.29 75.2615V74.4338H111.655C114.595 74.4338 116.062 76.0841 116.062 79.3897V93.7055C116.062 96.0179 116.428 97.7886 117.164 99.0175C117.9 100.246 118.756 100.863 119.733 100.863C120.937 100.863 122.035 100.131 123.011 98.6614C123.373 98.1096 123.747 97.3773 124.135 96.4593V76.0891L121.196 75.2615V74.4338H134.903V75.2615L131.964 76.0891V102.238H131.473C129.091 102.238 127.28 101.505 126.04 100.036C125.487 99.3736 125.094 98.6413 124.867 97.8337C124.408 98.7517 123.872 99.5793 123.252 100.312C121.785 101.962 119.956 102.79 117.77 102.79C115.942 102.79 114.305 102.358 112.851 101.495H112.855Z" fill="#FDFDFD"/>
<path d="M159.793 58.0201C157.458 55.348 156.291 51.6662 156.291 46.9642C156.291 42.2673 157.458 38.5803 159.793 35.9082C162.127 33.2362 165.344 31.9001 169.452 31.9001C173.556 31.9001 176.777 33.2362 179.112 35.9082C181.446 38.5803 182.614 42.2673 182.614 46.9642C182.614 51.661 181.446 55.348 179.112 58.0201C176.777 60.6921 173.556 62.0282 169.452 62.0282C165.349 62.0282 162.127 60.6921 159.793 58.0201ZM172.805 57.7094C173.714 55.5862 174.171 52.0079 174.171 46.9693C174.171 41.9307 173.714 38.3525 172.805 36.2293C171.895 34.1062 170.778 33.0446 169.452 33.0446C168.127 33.0446 167.009 34.1062 166.1 36.2293C165.19 38.3525 164.733 41.9307 164.733 46.9693C164.733 52.0079 165.19 55.5914 166.1 57.7094C167.009 59.8325 168.127 60.8941 169.452 60.8941C170.778 60.8941 171.891 59.8325 172.805 57.7094Z" fill="#FDFDFD"/>
<path d="M159.793 99.0173C157.458 96.5024 156.291 93.0371 156.291 88.6117C156.291 84.1863 157.458 80.721 159.793 78.2062C162.127 75.6913 165.344 74.4338 169.452 74.4338C173.556 74.4338 176.777 75.6913 179.112 78.2062C181.446 80.721 182.614 84.1912 182.614 88.6117C182.614 93.0322 181.446 96.5024 179.112 99.0173C176.777 101.532 173.556 102.79 169.452 102.79C165.349 102.79 162.127 101.532 159.793 99.0173ZM172.805 98.7248C173.714 96.7266 174.171 93.3588 174.171 88.6166C174.171 83.8744 173.714 80.5066 172.805 78.5083C171.895 76.5101 170.778 75.5109 169.452 75.5109C168.127 75.5109 167.009 76.5101 166.1 78.5083C165.19 80.5066 164.733 83.8744 164.733 88.6166C164.733 93.3588 165.19 96.7315 166.1 98.7248C167.009 100.723 168.127 101.722 169.452 101.722C170.778 101.722 171.891 100.723 172.805 98.7248Z" fill="#FDFDFD"/>
<path d="M233.934 99.0166C231.523 96.5013 230.322 93.0354 230.322 88.6093C230.322 85.7186 230.846 83.2082 231.899 81.0682C232.951 78.9283 234.417 77.2904 236.299 76.1448C238.182 75.0042 240.347 74.4338 242.786 74.4338C245.225 74.4338 247.377 74.9164 249.222 75.8767C251.072 76.837 252.496 78.1337 253.497 79.7569C254.499 81.3802 255 83.1741 255 85.1337C255 86.0257 254.916 86.791 254.745 87.4345L254.49 88.346C253.029 88.6678 251.452 88.9359 249.755 89.1504C246.194 89.6866 242.596 89.9547 238.965 89.9547C238.965 94.0932 239.508 97.0424 240.593 98.807C241.678 100.572 243.171 101.454 245.072 101.454C246.394 101.454 247.622 101.122 248.763 100.464C249.899 99.8063 250.799 98.9289 251.462 97.8418C252.125 96.7548 252.454 95.6385 252.454 94.4978H253.725C253.725 95.9261 253.317 97.2812 252.505 98.5633C251.689 99.8453 250.553 100.874 249.097 101.639C247.641 102.404 245.958 102.79 244.061 102.79C239.717 102.79 236.341 101.532 233.934 99.0166ZM244.265 88.346C244.84 88.3119 245.452 88.2193 246.097 88.0779C246.129 87.9024 246.217 87.5076 246.352 86.9032C246.523 86.0111 246.607 85.0654 246.607 84.0661C246.607 81.1072 246.231 78.938 245.489 77.5682C244.743 76.1936 243.843 75.5111 242.791 75.5111C240.245 75.5111 238.975 79.8788 238.975 88.619C241.145 88.619 242.911 88.5313 244.265 88.3509V88.346Z" fill="#FDFDFD"/>
<path d="M33.7256 122.284C47.8089 122.284 59.2256 109.985 59.2256 94.8141C59.2256 79.6431 47.8089 67.3445 33.7256 67.3445C19.6423 67.3445 8.22559 79.6431 8.22559 94.8141C8.22559 109.985 19.6423 122.284 33.7256 122.284Z" fill="#FDFDFD"/>
<path d="M24.7926 108.478C24.2205 106.911 24.1052 105.431 24.4466 104.034C24.788 102.636 25.4015 101.284 26.2781 99.9732C27.21 98.7137 28.3402 97.5719 29.6735 96.553L26.112 93.9468C25.1247 93.2351 24.2713 92.4773 23.5562 91.6837C22.8366 90.8849 22.2691 89.9121 21.8493 88.7703C21.3741 87.4749 21.268 86.159 21.5172 84.8175C21.7709 83.4761 22.4075 82.2063 23.4409 81.003C24.4697 79.8049 25.8675 78.8065 27.6298 78.0128C29.0691 77.3626 30.633 77.2397 32.3261 77.6339C33.0504 77.7978 33.7424 78.0487 34.4021 78.3815C34.5774 77.3933 34.8265 76.5587 35.1494 75.888C35.4954 75.2787 35.6892 74.9407 35.7307 74.8895L36.7456 74.4338L39.8827 83.0152L38.2542 83.7474C37.4053 82.5544 36.4273 81.469 35.3109 80.4961C34.2314 79.6155 33.1565 78.9857 32.0862 78.6119C31.0159 78.233 29.9364 78.2893 28.8523 78.7809C28.0127 79.1598 27.4268 79.851 27.0992 80.8597C26.7717 81.8632 26.8363 82.9845 27.2884 84.2185C27.6528 85.2118 28.2572 86.0976 29.1106 86.8707C29.9641 87.6439 30.9375 88.417 32.0401 89.1799L43.4118 97.2084C43.4672 96.5888 43.4949 95.9283 43.4949 95.2268C43.4764 93.6191 43.2088 92.1138 42.6922 90.6955L38.9416 90.8081L38.6924 90.1323L46.2213 86.7427L46.4704 87.4186L43.7117 90.2398C44.2607 91.7451 44.5559 93.5065 44.5974 95.5187C44.579 96.5069 44.5559 97.3466 44.519 98.0276L51.7573 103.184L54.0409 102.943L54.29 103.619L48.5926 106.184C47.4808 106.686 46.452 106.921 45.5109 106.891C44.5698 106.86 43.7624 106.573 43.0889 106.036C42.849 106.845 42.5261 107.566 42.1293 108.206C41.179 109.758 39.8919 110.9 38.2634 111.632C31.2097 114.806 26.7209 113.762 24.7972 108.493L24.7926 108.478ZM41.3774 107.316C41.7464 106.588 42.0002 105.948 42.1432 105.395L30.61 97.1776C30.43 97.7153 30.3424 98.3501 30.3562 99.0772C30.3101 100.68 30.7576 102.774 31.7033 105.36C32.4968 107.525 33.5348 109.005 34.8173 109.794C36.0998 110.582 37.3776 110.69 38.6555 110.116C39.7673 109.615 40.6715 108.683 41.3728 107.316H41.3774Z" fill="#A81D62"/>
</svg>
