<svg width="160" height="61" viewBox="0 0 160 61" fill="none" xmlns="http://www.w3.org/2000/svg">
<path d="M145.719 18.2962C144.8 15.6988 143.269 13.3688 141.163 11.2298C139.478 9.62557 137.449 8.40328 135.037 7.52476C132.625 6.64624 129.983 6.22607 127.15 6.22607C119.99 6.22607 114.171 8.93803 109.73 14.3238C106.207 8.93803 100.962 6.22607 93.9555 6.22607L93.9938 6.26427C93.6875 6.26427 93.3812 6.22607 93.0366 6.22607C85.877 6.22607 80.0574 8.93803 75.6162 14.3238C72.0938 8.93803 66.8485 6.22607 59.8421 6.22607L59.8804 6.26427C59.6123 6.26427 59.3443 6.22607 59.0763 6.22607H58.9615C51.8402 6.22607 46.0589 8.89984 41.6176 14.2092C40.9285 13.1779 40.1244 12.1847 39.1673 11.268C38.7461 10.8861 38.325 10.5041 37.8655 10.1603C34.6877 7.56296 30.6676 6.22607 25.7669 6.22607H25.1543C19.6028 6.22607 14.8552 7.86853 10.95 11.1152V6.87542H0V43.0476H11.2563V27.9981C11.2563 26.0119 11.5626 24.2931 12.1752 22.8034C12.7877 21.3137 13.6301 20.0914 14.6638 19.0983C15.9655 17.9524 17.4587 17.1503 19.0668 16.6919C19.1816 16.6538 19.2965 16.6156 19.3731 16.6156C19.4113 16.6156 19.4496 16.6156 19.5262 16.5774C20.5599 16.3482 21.5937 16.1954 22.704 16.1954C25.8435 16.1954 28.447 17.1885 30.6293 19.1365C32.7734 21.1228 33.8454 24.2167 33.8454 28.5329V43.0476H45.1017V27.4634C45.14 25.7064 45.4463 24.1403 46.0206 22.7652C46.6332 21.2755 47.4755 20.0151 48.5475 19.0601C49.6195 18.067 50.8447 17.3413 52.223 16.8829C53.6013 16.4246 55.0562 16.1954 56.5877 16.1572C59.7272 16.1572 62.369 17.1503 64.513 19.0983C66.6571 21.0846 67.7291 24.2167 67.7291 28.4947V43.0094H79.0237V27.9981C79.0237 26.0119 79.33 24.2931 79.9426 22.8034C80.5552 21.3137 81.3975 20.0533 82.4695 19.0983C83.5415 18.1052 84.7667 17.3795 86.145 16.9211C87.5233 16.4628 88.9782 16.1954 90.5097 16.1954C93.6492 16.1954 96.291 17.1885 98.4733 19.1365C100.617 21.1228 101.689 24.2549 101.689 28.5329V43.0476H113.214V27.9981C113.214 26.0119 113.52 24.2931 114.133 22.8034C114.745 21.3137 115.587 20.0533 116.659 19.0983C117.732 18.1052 118.957 17.3795 120.335 16.9211C121.713 16.4628 123.168 16.1954 124.738 16.1954C127.877 16.1954 130.519 17.1885 132.702 19.1365C134.884 21.0846 135.918 24.2549 135.918 28.5329V43.0476H147.097V26.8904C147.097 23.7583 146.638 20.8936 145.719 18.2962Z" fill="white"/>
<path d="M160 6.34064C160 9.81653 157.167 12.6813 153.645 12.6813C150.122 12.6813 147.289 9.85473 147.289 6.34064C147.289 2.82655 150.122 0 153.645 0C157.167 0 160 2.82655 160 6.34064Z" fill="white"/>
<path d="M75.9987 57.8296C75.9987 58.3261 75.9222 58.7845 75.769 59.1665C75.6159 59.5484 75.3861 59.854 75.0798 60.1214C74.7736 60.3888 74.429 60.5797 74.0461 60.6943C73.6632 60.8089 73.2038 60.8853 72.7061 60.8853H68.418V49.6555H72.5529C73.0124 49.6555 73.4335 49.7319 73.8547 49.8465C74.2758 49.9993 74.5821 50.1903 74.8884 50.4194C75.1947 50.6868 75.4244 50.9924 75.5776 51.3362C75.7307 51.6799 75.8073 52.1001 75.8073 52.5585C75.8073 53.1696 75.6541 53.6662 75.3479 54.1245C75.0416 54.5829 74.6204 54.8885 74.0461 55.0794C74.6587 55.3086 75.1181 55.6142 75.4627 56.1107C75.8456 56.6073 75.9987 57.1802 75.9987 57.8296ZM74.965 52.5967C74.965 52.2147 74.8884 51.8709 74.7736 51.6035C74.6587 51.3362 74.4673 51.107 74.2375 50.916C74.0078 50.7632 73.7398 50.6104 73.4335 50.534C73.1272 50.4576 72.8209 50.4194 72.4764 50.4194H69.2603V54.7739H72.4764C72.8209 54.7739 73.1272 54.7357 73.4335 54.6593C73.7398 54.5829 74.0078 54.4301 74.2375 54.2773C74.4673 54.0863 74.6587 53.8953 74.7736 53.5898C74.8884 53.3224 74.965 52.9786 74.965 52.5967ZM75.1564 57.8296C75.1564 57.1039 74.9267 56.5309 74.4673 56.1489C74.0078 55.7288 73.3952 55.5378 72.6295 55.5378H69.2986V60.1596H72.6295C73.3952 60.1596 74.0078 59.9686 74.4673 59.5484C74.9267 59.1283 75.1564 58.5553 75.1564 57.8296Z" fill="white"/>
<path d="M87.9058 55.2705V56.913C87.9058 57.3713 87.8675 57.7533 87.7909 58.1353C87.7144 58.5172 87.6378 58.7846 87.4846 59.052C87.3315 59.3193 87.14 59.5867 86.872 59.8541C86.4892 60.2361 86.068 60.5034 85.5703 60.6944C85.0726 60.8854 84.5748 61 84.0388 61C83.5028 61 82.9668 60.8854 82.5074 60.6944C82.0096 60.5034 81.5885 60.1979 81.2056 59.8541C80.9376 59.5867 80.7462 59.3193 80.593 59.052C80.4399 58.7846 80.3633 58.479 80.2867 58.1353C80.2102 57.7915 80.1719 57.3713 80.1719 56.913V53.6281C80.1719 53.1697 80.2102 52.7877 80.2867 52.4058C80.3633 52.0238 80.4782 51.7564 80.593 51.489C80.7462 51.2217 80.9376 50.9543 81.2056 50.6869C81.5885 50.3049 82.0096 50.0376 82.5074 49.8466C83.0051 49.6556 83.5028 49.541 84.0388 49.541C84.5748 49.541 85.0726 49.6556 85.5703 49.8466C86.068 50.0376 86.4892 50.3431 86.872 50.6869C87.14 50.9543 87.3315 51.2217 87.4846 51.489C87.6378 51.7564 87.7144 52.062 87.7909 52.4058C87.8675 52.7495 87.9058 53.1697 87.9058 53.6281V55.2705ZM87.0635 55.2705C87.0635 54.6594 87.0635 54.1628 87.0252 53.7426C87.0252 53.3225 86.9869 52.9405 86.9103 52.6349C86.872 52.3294 86.7572 52.062 86.6423 51.8328C86.5275 51.6036 86.3743 51.4127 86.1829 51.1835C85.9149 50.9161 85.5703 50.6869 85.1874 50.5341C84.8046 50.3813 84.4217 50.3049 84.0388 50.3049C83.6177 50.3049 83.2348 50.3813 82.8902 50.5341C82.5074 50.6869 82.2011 50.8779 81.8948 51.1835C81.7033 51.3745 81.5502 51.6036 81.4353 51.8328C81.3205 52.062 81.2439 52.3294 81.1673 52.6349C81.0908 52.9405 81.0908 53.3225 81.0525 53.7426C81.0142 54.1628 81.0142 54.6976 81.0142 55.2705C81.0142 55.8817 81.0142 56.3782 81.0525 56.7984C81.0525 57.2185 81.0908 57.6005 81.1673 57.9061C81.2056 58.2116 81.3205 58.479 81.4353 58.7082C81.5502 58.9374 81.7033 59.1284 81.8948 59.3575C82.1628 59.6249 82.5074 59.8541 82.8902 60.0069C83.2731 60.1597 83.656 60.2361 84.0388 60.2361C84.4217 60.2361 84.8428 60.1597 85.1874 60.0069C85.5703 59.8541 85.8766 59.6631 86.1829 59.3575C86.3743 59.1666 86.5275 58.9374 86.6423 58.7082C86.7572 58.479 86.8338 58.2116 86.9103 57.9061C86.9486 57.6005 86.9869 57.2185 87.0252 56.7984C87.0635 56.3782 87.0635 55.8817 87.0635 55.2705Z" fill="white"/>
<path d="M96.4826 55.7288H93.3814V60.9235H92.5391V49.6555H96.8272C97.2866 49.6555 97.7078 49.7319 98.0906 49.8465C98.4735 49.9993 98.8181 50.1903 99.1244 50.4194C99.4307 50.6868 99.6604 50.9924 99.8135 51.3744C99.9667 51.7563 100.043 52.1765 100.043 52.673C100.043 53.5134 99.8135 54.2009 99.3541 54.7357C98.8946 55.2704 98.2438 55.576 97.478 55.7288L100.196 60.9235H99.1627L96.4826 55.7288ZM99.2009 52.673C99.2009 51.9091 98.9712 51.3362 98.5118 50.9542C98.0523 50.5722 97.4398 50.4194 96.7123 50.4194H93.3814V54.9648H96.7123C97.4398 54.9648 98.0523 54.7739 98.5118 54.4301C98.9712 54.0481 99.2009 53.4752 99.2009 52.673Z" fill="white"/>
<path d="M112.218 55.1176V56.3399C112.218 56.7601 112.18 57.2184 112.103 57.6386C112.027 58.0588 111.912 58.4789 111.759 58.8609C111.605 59.2429 111.376 59.5866 111.108 59.854C110.419 60.5416 109.5 60.8853 108.275 60.8853H104.522V49.6555H108.313C109.5 49.6555 110.457 49.9993 111.146 50.6868C111.414 50.9542 111.644 51.298 111.797 51.6417C111.95 51.9855 112.065 52.3675 112.142 52.7494C112.218 53.1314 112.256 53.5134 112.256 53.9335C112.218 54.3537 112.218 54.7357 112.218 55.1176ZM111.376 55.1176V54.1245C111.376 53.7808 111.337 53.437 111.299 53.0932C111.261 52.7494 111.184 52.4057 111.069 52.1001C110.955 51.7945 110.801 51.5272 110.572 51.298C110.227 50.9542 109.883 50.725 109.461 50.6104C109.04 50.4958 108.619 50.4194 108.16 50.4194H105.441V60.1596H108.16C108.619 60.1596 109.04 60.0832 109.461 59.9686C109.883 59.854 110.265 59.6248 110.572 59.2811C110.801 59.0519 110.955 58.7463 111.069 58.4025C111.184 58.0588 111.261 57.6768 111.299 57.2948C111.337 56.9129 111.376 56.5309 111.376 56.1489C111.337 55.8052 111.376 55.4232 111.376 55.1176Z" fill="white"/>
<path d="M116.851 49.6555H123.666V50.4194H117.693V54.8503H122.785V55.6142H117.693V60.1596H123.666V60.8853H116.851V49.6555Z" fill="white"/>
<path d="M133.544 58.1735H128.299L127.304 60.9236H126.385L130.52 49.6938H131.285L135.42 60.9236H134.502L133.544 58.1735ZM128.567 57.4096H133.276L130.903 50.8015L128.567 57.4096Z" fill="white"/>
<path d="M146.561 57.2566C146.561 57.7914 146.485 58.3261 146.255 58.7463C146.025 59.1665 145.796 59.5866 145.451 59.9304C145.106 60.2742 144.685 60.5415 144.226 60.6943C143.766 60.8853 143.23 60.9617 142.656 60.9617C142.082 60.9617 141.546 60.8853 141.086 60.6943C140.627 60.5034 140.206 60.236 139.861 59.9304C139.517 59.5866 139.249 59.2047 139.057 58.7463C138.866 58.288 138.789 57.7914 138.789 57.2566V49.6555H139.631V57.1421C139.631 57.6004 139.708 58.0206 139.861 58.4025C140.014 58.7845 140.206 59.1283 140.474 59.3957C140.742 59.663 141.048 59.854 141.431 60.0068C141.814 60.1596 142.197 60.236 142.656 60.236C143.115 60.236 143.537 60.1596 143.881 60.0068C144.264 59.854 144.57 59.663 144.838 59.3957C145.106 59.1283 145.298 58.7845 145.451 58.4025C145.604 58.0206 145.642 57.6004 145.642 57.1421V49.6555H146.485L146.561 57.2566Z" fill="white"/>
<path d="M153.912 55.8816L151.002 60.8853H150.007L153.491 55.1176L150.237 49.6555H151.232L153.912 54.3919L156.63 49.6555H157.626L154.372 55.1176L157.894 60.8853H156.86L153.912 55.8816Z" fill="white"/>
</svg>
