<svg width="160" height="74" viewBox="0 0 160 74" fill="none" xmlns="http://www.w3.org/2000/svg">
<path d="M0 36.7796L2.27268 36.185V10.8005L0 10.2059V9.61133H10.2199C14.0545 9.61133 16.8746 10.254 18.6801 11.5363C20.4828 12.8185 21.3856 14.4912 21.3856 16.5543C21.3856 17.9807 20.9929 19.1339 20.2105 20.0047C19.4281 20.8786 18.4308 21.5243 17.2214 21.9477C15.9346 22.4252 14.5475 22.6744 13.0572 22.7015V22.8997C14.9 22.9807 16.502 23.269 17.8634 23.7735C19.2505 24.251 20.4054 24.9897 21.3283 25.9958C22.2482 27.0018 22.7096 28.284 22.7096 29.8426C22.7096 32.197 21.7897 34.0408 19.9469 35.3742C18.1041 36.7105 15.1149 37.3772 10.9765 37.3772H0V36.7826V36.7796ZM10.2199 22.3021C11.0539 22.3021 11.8277 22.0588 12.547 21.5693C13.2664 21.0798 13.8453 20.3921 14.2895 19.5062C14.7309 18.6204 14.9516 17.6354 14.9516 16.5513C14.9516 15.3891 14.7309 14.3561 14.2895 13.4582C13.8482 12.5603 13.2664 11.8576 12.547 11.3561C11.8277 10.8546 11.051 10.6023 10.2199 10.6023H8.51468V22.3021H10.2199V22.3021ZM10.9765 36.3832C12.5413 36.3832 13.8167 35.8006 14.7997 34.6384C15.7827 33.4763 16.2756 31.8757 16.2756 29.8396C16.2756 27.8036 15.7827 26.203 14.7997 25.0408C13.8167 23.8786 12.5413 23.296 10.9765 23.296H8.51468V36.3862H10.9765V36.3832Z" fill="#1D1D1B"/>
<path d="M27.109 34.9619C25.5526 33.3518 24.7744 31.1332 24.7744 28.2998C24.7744 25.4665 25.5526 23.2479 27.109 21.6377C28.6653 20.0276 30.8099 19.2225 33.5486 19.2225C36.2873 19.2225 38.4319 20.0276 39.9882 21.6377C41.5446 23.2479 42.3228 25.4696 42.3228 28.2998C42.3228 31.13 41.5446 33.3518 39.9882 34.9619C38.4319 36.5721 36.2843 37.3771 33.5486 37.3771C30.8129 37.3771 28.6653 36.5721 27.109 34.9619V34.9619ZM35.7836 34.7747C36.3899 33.4953 36.6945 31.3391 36.6945 28.3029C36.6945 25.2668 36.3899 23.1106 35.7836 21.8312C35.1774 20.5518 34.4323 19.9121 33.5486 19.9121C32.6648 19.9121 31.9198 20.5518 31.3136 21.8312C30.7073 23.1106 30.4027 25.2668 30.4027 28.3029C30.4027 31.3391 30.7073 33.4984 31.3136 34.7747C31.9198 36.0541 32.6648 36.6938 33.5486 36.6938C34.4323 36.6938 35.1743 36.0541 35.7836 34.7747Z" fill="#1D1D1B"/>
<path d="M49.1333 36.5971C48.2209 36.0773 47.5101 35.3972 46.9979 34.5569C46.4857 33.7166 46.2311 32.831 46.2311 31.9031V21.2877L44.3867 20.789V20.2903H48.3805C50.2248 20.2903 51.1456 21.2847 51.1456 23.2766V31.9031C51.1456 33.2965 51.3751 34.3635 51.8369 35.104C52.2987 35.8445 52.836 36.2163 53.4489 36.2163C54.2046 36.2163 54.8931 35.775 55.506 34.8894C55.7327 34.5569 55.9678 34.1156 56.2112 33.5625V21.2877L54.3669 20.789V20.2903H62.9673V20.789L61.123 21.2877V37.0445H60.8151C59.3206 37.0445 58.1843 36.6032 57.4063 35.7176C57.0593 35.3186 56.813 34.8773 56.6702 34.3907C56.382 34.9438 56.0461 35.4425 55.6571 35.8838C54.7363 36.8782 53.5889 37.377 52.2175 37.377C51.07 37.377 50.0429 37.117 49.1305 36.5971H49.1333Z" fill="#1D1D1B"/>
<path d="M65.0322 36.8756L67.0239 36.3711V21.6042L65.0322 21.0997V20.5951H69.3449C71.3366 20.5951 72.3309 21.6012 72.3309 23.6164V36.368L74.3225 36.8726V37.3771H65.0353V36.8726L65.0322 36.8756ZM67.6857 17.9133C67.2445 17.4668 67.0239 16.9072 67.0239 16.2345C67.0239 15.5617 67.2445 15.0052 67.6857 14.5557C68.127 14.1092 68.68 13.8829 69.3449 13.8829C70.0098 13.8829 70.5599 14.1062 71.0041 14.5557C71.4454 15.0021 71.669 15.5617 71.669 16.2345C71.669 16.9072 71.4484 17.4638 71.0041 17.9133C70.5629 18.3598 70.0098 18.583 69.3449 18.583C68.68 18.583 68.13 18.3598 67.6857 17.9133Z" fill="#1D1D1B"/>
<path d="M76.3867 36.8808L78.1571 36.3846V2.06034L76.3867 1.5641V1.06787H80.2202C81.9906 1.06787 82.8744 2.05733 82.8744 4.03925V36.3846L84.6448 36.8808V37.3771H76.3894V36.8808H76.3867Z" fill="#1D1D1B"/>
<path d="M86.709 61.444L88.7006 60.9518V0.981362L86.709 0.48919V0H91.0217C93.0133 0 94.0076 0.981362 94.0076 2.94707V60.9548L95.9993 61.447V61.9392H86.712V61.447L86.709 61.444Z" fill="#1D1D1B"/>
<path d="M122.094 61.1511C121.06 60.6237 120.269 59.9015 119.713 58.9815C119.16 58.0616 118.883 57.0188 118.883 55.8561V9.75684H116.645V8.36343H118.883V2.96061C118.883 0.988869 119.841 0 121.759 0H123.995V8.36343H128.469V9.75684H123.995V55.8561C123.995 57.8728 124.198 59.2542 124.603 60.0004C125.008 60.7465 125.604 61.1181 126.393 61.1181C127.182 61.1181 127.831 60.7345 128.405 59.9674C128.981 59.2003 129.266 58.1575 129.266 56.842H130.064C130.064 58.4631 129.671 59.7187 128.882 60.6087C128.093 61.4957 127.051 61.9392 125.75 61.9392C124.344 61.9392 123.124 61.6755 122.091 61.1511H122.094Z" fill="#1D1D1B"/>
<path d="M135.511 61.1511C134.477 60.6237 133.685 59.9015 133.129 58.9815C132.576 58.0616 132.3 57.0188 132.3 55.8561V9.81677H130.063V8.36343H132.3V2.96061C132.3 0.988869 133.257 0 135.176 0H137.412V8.36343H141.887V9.7958H137.412V55.8561C137.412 57.8728 137.613 59.2542 138.021 60.0004C138.425 60.7465 139.022 61.1181 139.811 61.1181C140.6 61.1181 141.25 60.7345 141.823 59.9674C142.4 59.2003 142.685 58.1575 142.685 56.842H143.483C143.483 58.4631 143.09 59.7187 142.301 60.6087C141.512 61.4957 140.469 61.9392 139.168 61.9392C137.762 61.9392 136.542 61.6755 135.508 61.1511H135.511Z" fill="#1D1D1B"/>
<path d="M146.782 34.9615C145.269 33.3511 144.516 31.1321 144.516 28.2983C144.516 26.4475 144.844 24.8403 145.505 23.4702C146.165 22.1001 147.085 21.0514 148.266 20.318C149.447 19.5877 150.806 19.2225 152.336 19.2225C153.866 19.2225 155.216 19.5315 156.374 20.1463C157.535 20.7612 158.428 21.5913 159.057 22.6306C159.685 23.6699 159.999 24.8184 159.999 26.073C159.999 26.6442 159.947 27.1342 159.839 27.5461L159.679 28.1297C158.763 28.3357 157.774 28.5074 156.709 28.6447C154.475 28.988 152.217 29.1597 149.939 29.1597C149.939 31.8093 150.279 33.6975 150.96 34.8273C151.641 35.9571 152.578 36.522 153.77 36.522C154.6 36.522 155.371 36.3098 156.086 35.8884C156.799 35.4671 157.364 34.9053 157.78 34.2094C158.196 33.5134 158.402 32.7987 158.402 32.0684H159.199C159.199 32.9828 158.943 33.8504 158.434 34.6713C157.922 35.4921 157.209 36.1506 156.296 36.6406C155.382 37.1306 154.326 37.3771 153.136 37.3771C150.41 37.3771 148.292 36.5719 146.782 34.9615V34.9615ZM153.264 28.1297C153.625 28.1079 154.009 28.0486 154.413 27.9581C154.434 27.8457 154.489 27.5929 154.573 27.2059C154.681 26.6348 154.733 26.0293 154.733 25.3895C154.733 23.4951 154.498 22.1063 154.032 21.2293C153.564 20.3492 152.999 19.9123 152.339 19.9123C150.742 19.9123 149.945 22.7086 149.945 28.3045C151.306 28.3045 152.415 28.2483 153.264 28.1329V28.1297Z" fill="#1D1D1B"/>
<path d="M44.713 69.0028C42.4307 66.5955 41.291 63.1706 41.291 58.7338C41.291 55.8177 41.7909 53.3152 42.7937 51.2233C43.7965 49.1314 45.2039 47.5484 47.0161 46.4682C48.8283 45.391 50.9261 44.8524 53.3095 44.8524C54.7557 44.8524 56.2137 45.269 57.6837 46.1081C58.2401 46.4117 58.7995 46.8193 59.356 47.3252C59.7875 46.6676 60.2308 46.1468 60.6861 45.7659C61.1414 45.4356 61.3973 45.2601 61.4478 45.2333H62.3971V52.4612H60.8765C60.5462 51.2441 60.0523 50.1402 59.3917 49.1522C58.7847 48.1881 58.0289 47.3906 57.1272 46.7568C56.2256 46.123 55.1931 45.8076 54.0267 45.8076C52.277 45.8076 50.8249 46.8223 49.6733 48.8517C48.5188 50.8811 47.9415 54.1751 47.9415 58.7398C47.9415 63.3045 48.5694 66.6937 49.8251 68.6844C51.0808 70.6752 52.7977 71.669 54.9789 71.669C56.1691 71.669 57.3058 71.3328 58.383 70.6603C59.4601 69.9878 60.335 69.0951 61.0075 67.9792C61.6799 66.8633 62.0162 65.685 62.0162 64.4412H62.9684C62.9684 65.8873 62.5816 67.2383 61.8079 68.491C61.0342 69.7467 59.9838 70.7495 58.6508 71.4964C57.3207 72.2433 55.8418 72.6183 54.2201 72.6183C50.1643 72.6183 46.9923 71.4131 44.713 69.0058V69.0028Z" fill="#1D1D1B"/>
<path d="M70.8101 61.1592C69.8977 60.6394 69.1868 59.9593 68.6747 59.119C68.1625 58.2787 67.9078 57.3931 67.9078 56.4652V45.8499L66.0635 45.3511V44.8524H70.0572C71.9016 44.8524 72.8224 45.8468 72.8224 47.8387V56.4652C72.8224 57.8586 73.0518 58.9255 73.5136 59.6661C73.9754 60.4066 74.5128 60.7784 75.1257 60.7784C75.8813 60.7784 76.5698 60.3371 77.1827 59.4515C77.4094 59.119 77.6445 58.6777 77.888 58.1246V45.8499L76.0437 45.3511V44.8524H84.6441V45.3511L82.7997 45.8499V61.6066H82.4919C80.9974 61.6066 79.8611 61.1653 79.0831 60.2797C78.736 59.8807 78.4897 59.4394 78.347 58.9528C78.0587 59.5059 77.7229 60.0046 77.3339 60.4459C76.4131 61.4403 75.2656 61.9391 73.8943 61.9391C72.7468 61.9391 71.7197 61.6791 70.8073 61.1592H70.8101Z" fill="#1D1D1B"/>
<path d="M100.261 34.9619C98.7959 33.3518 98.0635 31.1332 98.0635 28.2998C98.0635 25.4696 98.7959 23.2479 100.261 21.6377C101.726 20.0276 103.744 19.2225 106.322 19.2225C108.896 19.2225 110.918 20.0276 112.382 21.6377C113.847 23.2479 114.58 25.4696 114.58 28.2998C114.58 31.13 113.847 33.3518 112.382 34.9619C110.918 36.5721 108.896 37.3771 106.322 37.3771C103.747 37.3771 101.726 36.5721 100.261 34.9619V34.9619ZM108.425 34.7747C108.996 33.4953 109.282 31.3391 109.282 28.3029C109.282 25.2668 108.996 23.1106 108.425 21.8312C107.854 20.5518 107.153 19.9121 106.322 19.9121C105.49 19.9121 104.789 20.5518 104.218 21.8312C103.647 23.1106 103.361 25.2668 103.361 28.3029C103.361 31.3391 103.647 33.4984 104.218 34.7747C104.789 36.0541 105.49 36.6938 106.322 36.6938C107.153 36.6938 107.852 36.0541 108.425 34.7747Z" fill="#1D1D1B"/>
<path d="M100.261 59.6659C98.7959 58.1505 98.0635 56.0624 98.0635 53.3957C98.0635 50.7291 98.7959 48.641 100.261 47.1255C101.726 45.6101 103.744 44.8524 106.322 44.8524C108.896 44.8524 110.918 45.6101 112.382 47.1255C113.847 48.641 114.58 50.732 114.58 53.3957C114.58 56.0595 113.847 58.1505 112.382 59.6659C110.918 61.1814 108.896 61.9391 106.322 61.9391C103.747 61.9391 101.726 61.1814 100.261 59.6659ZM108.425 59.4897C108.996 58.2856 109.282 56.2562 109.282 53.3987C109.282 50.5411 108.996 48.5117 108.425 47.3076C107.854 46.1035 107.153 45.5015 106.322 45.5015C105.49 45.5015 104.789 46.1035 104.218 47.3076C103.647 48.5117 103.361 50.5411 103.361 53.3987C103.361 56.2562 103.647 58.2885 104.218 59.4897C104.789 60.6938 105.49 61.2959 106.322 61.2959C107.153 61.2959 107.852 60.6938 108.425 59.4897Z" fill="#1D1D1B"/>
<path d="M146.782 59.6655C145.269 58.1499 144.516 56.0614 144.516 53.3943C144.516 51.6524 144.844 50.1397 145.505 48.8502C146.165 47.5607 147.085 46.5737 148.266 45.8834C149.447 45.1961 150.806 44.8524 152.336 44.8524C153.866 44.8524 155.216 45.1432 156.374 45.7219C157.535 46.3005 158.428 47.0819 159.057 48.06C159.685 49.0382 159.999 50.1191 159.999 51.2999C159.999 51.8375 159.947 52.2986 159.839 52.6864L159.679 53.2357C158.763 53.4295 157.774 53.5911 156.709 53.7203C154.475 54.0434 152.217 54.205 149.939 54.205C149.939 56.6988 150.279 58.4759 150.96 59.5392C151.641 60.6026 152.578 61.1342 153.77 61.1342C154.6 61.1342 155.371 60.9345 156.086 60.5379C156.799 60.1414 157.364 59.6127 157.78 58.9576C158.196 58.3026 158.402 57.6299 158.402 56.9426H159.199C159.199 57.8033 158.943 58.6198 158.434 59.3924C157.922 60.1649 157.209 60.7847 156.296 61.2458C155.382 61.707 154.326 61.9391 153.136 61.9391C150.41 61.9391 148.292 61.1812 146.782 59.6655V59.6655ZM153.264 53.2357C153.625 53.2151 154.009 53.1593 154.413 53.0741C154.434 52.9684 154.489 52.7304 154.573 52.3662C154.681 51.8287 154.733 51.2588 154.733 50.6566C154.733 48.8737 154.498 47.5665 154.032 46.7411C153.564 45.9128 152.999 45.5016 152.339 45.5016C150.742 45.5016 149.945 48.1335 149.945 53.4001C151.306 53.4001 152.415 53.3473 153.264 53.2386V53.2357Z" fill="#1D1D1B"/>
<path d="M21.1611 73.6864C29.9976 73.6864 37.1611 66.2755 37.1611 57.1336C37.1611 47.9918 29.9976 40.5809 21.1611 40.5809C12.3246 40.5809 5.16113 47.9918 5.16113 57.1336C5.16113 66.2755 12.3246 73.6864 21.1611 73.6864Z" fill="#E72787"/>
<path d="M15.555 65.3667C15.1961 64.4226 15.1237 63.5309 15.3379 62.6887C15.5521 61.8464 15.9371 61.0318 16.487 60.242C17.0718 59.483 17.7809 58.795 18.6175 58.181L16.3828 56.6106C15.7634 56.1817 15.2279 55.7251 14.7792 55.2469C14.3277 54.7656 13.9716 54.1793 13.7082 53.4913C13.4101 52.7107 13.3435 51.9178 13.4998 51.1095C13.659 50.3011 14.0585 49.5359 14.7069 48.8109C15.3524 48.0889 16.2294 47.4873 17.3352 47.0091C18.2383 46.6172 19.2196 46.5432 20.2819 46.7807C20.7363 46.8795 21.1705 47.0307 21.5844 47.2312C21.6944 46.6357 21.8508 46.1328 22.0534 45.7287C22.2705 45.3615 22.392 45.1579 22.4181 45.127L23.0549 44.8524L25.0232 50.0234L24.0014 50.4646C23.4688 49.7457 22.8552 49.0917 22.1547 48.5054C21.4773 47.9748 20.8029 47.5953 20.1314 47.37C19.4598 47.1417 18.7825 47.1757 18.1022 47.4719C17.5754 47.7002 17.2078 48.1167 17.0023 48.7245C16.7968 49.3292 16.8373 50.0049 17.121 50.7485C17.3496 51.347 17.7288 51.8808 18.2643 52.3467C18.7998 52.8125 19.4106 53.2784 20.1024 53.7381L27.2376 58.5759C27.2724 58.2026 27.2897 57.8046 27.2897 57.3819C27.2781 56.4131 27.1103 55.506 26.7861 54.6514L24.4327 54.7193L24.2764 54.312L29.0004 52.2695L29.1567 52.6768L27.4258 54.3768C27.7702 55.2839 27.9555 56.3452 27.9815 57.5578C27.97 58.1532 27.9555 58.6592 27.9323 59.0696L32.474 62.1765L33.9068 62.0315L34.0631 62.4387L30.4883 63.9845C29.7907 64.2869 29.1452 64.4288 28.5547 64.4103C27.9642 64.3917 27.4576 64.219 27.035 63.895C26.8845 64.3825 26.6819 64.8175 26.4329 65.2032C25.8366 66.138 25.029 66.8261 24.0072 67.2673C19.5814 69.1802 16.7649 68.5508 15.5579 65.376L15.555 65.3667ZM25.9611 64.6663C26.1927 64.2282 26.3519 63.8426 26.4416 63.5093L19.2051 58.5574C19.0922 58.8814 19.0372 59.2639 19.0459 59.7021C19.0169 60.6678 19.2977 61.9297 19.8911 63.4878C20.389 64.7928 21.0403 65.6845 21.845 66.1596C22.6497 66.6348 23.4515 66.6996 24.2533 66.354C24.9509 66.0517 25.5182 65.4901 25.9582 64.6663H25.9611Z" fill="white"/>
</svg>
