<svg width="63" height="40" viewBox="0 0 63 40" fill="none" xmlns="http://www.w3.org/2000/svg">
<path d="M0 27.881L2.4361 27.2714V1.22197L0 0.609546V0H10.9668C15.0814 0 18.1086 0.658425 20.0455 1.97527C21.9823 3.29212 22.9493 5.00863 22.9493 7.12479C22.9493 8.59115 22.5275 9.76999 21.6896 10.6671C20.8489 11.5641 19.7815 12.2283 18.4817 12.6625C17.1015 13.1512 15.6094 13.41 14.014 13.4359V13.64C15.991 13.7205 17.7098 14.0196 19.1732 14.5342C20.6624 15.023 21.902 15.7821 22.889 16.8143C23.8761 17.8465 24.3725 19.1604 24.3725 20.7619C24.3725 23.1771 23.3826 25.069 21.4084 26.4405C19.4314 27.812 16.2235 28.4963 11.7817 28.4963H0V27.8867V27.881ZM10.9668 13.0247C11.8591 13.0247 12.6941 12.7746 13.466 12.2714C14.2378 11.7683 14.8605 11.0638 15.3339 10.1553C15.8074 9.2467 16.0456 8.23462 16.0456 7.12191C16.0456 5.9287 15.8074 4.87062 15.3339 3.94767C14.8605 3.02473 14.2378 2.30592 13.466 1.79126C12.6941 1.2766 11.862 1.01783 10.9668 1.01783H9.13897V13.0247H10.9668ZM11.7788 27.4756C13.4574 27.4756 14.8261 26.8775 15.882 25.6843C16.9379 24.4911 17.4659 22.8493 17.4659 20.7591C17.4659 18.6688 16.9379 17.027 15.882 15.8338C14.8261 14.6406 13.4574 14.0426 11.7788 14.0426H9.13897V27.4756H11.7788Z" fill="#1D1D1B"/>
<path d="M43.7239 32.5647C41.3165 30.0172 40.1113 26.3973 40.1113 21.705C40.1113 18.6227 40.6393 15.9718 41.6981 13.7607C42.754 11.5468 44.2404 9.87346 46.1542 8.73199C48.0681 7.59341 50.2833 7.02124 52.7968 7.02124C54.3234 7.02124 55.8613 7.46402 57.4137 8.34959C58.0019 8.67162 58.5901 9.10002 59.1812 9.63769C59.6346 8.94189 60.1051 8.38984 60.5872 7.98731C61.0693 7.63941 61.3361 7.45252 61.3906 7.42377H62.3949V15.0661H60.7909C60.4437 13.778 59.9215 12.6135 59.2242 11.567C58.5815 10.5491 57.7867 9.70382 56.8369 9.03389C55.8872 8.36397 54.7968 8.02757 53.5658 8.02757C51.718 8.02757 50.1886 9.10002 48.9691 11.2449C47.7525 13.3898 47.1442 16.8746 47.1442 21.7021C47.1442 26.6101 47.807 30.115 49.1298 32.2196C50.4554 34.3243 52.266 35.3766 54.5701 35.3766C55.8269 35.3766 57.0234 35.0201 58.1626 34.3099C59.2989 33.5997 60.2228 32.6538 60.9315 31.475C61.6403 30.2961 61.9961 29.0483 61.9961 27.7343H63.0003C63.0003 29.2639 62.5929 30.69 61.7751 32.0184C60.9573 33.3467 59.8498 34.4048 58.4438 35.1955C57.0378 35.9862 55.4797 36.383 53.7667 36.383C49.4856 36.383 46.1399 35.1092 43.7325 32.5618L43.7239 32.5647Z" fill="#1D1D1B"/>
<path d="M31.6957 39.2813C38.3324 39.2813 43.7126 33.8902 43.7126 27.2399C43.7126 20.5896 38.3324 15.1985 31.6957 15.1985C25.0589 15.1985 19.6787 20.5896 19.6787 27.2399C19.6787 33.8902 25.0589 39.2813 31.6957 39.2813Z" fill="#E72787"/>
<path d="M27.2337 32.8149C26.9697 32.1593 26.9152 31.5412 27.073 30.9546C27.2308 30.3709 27.5149 29.8045 27.9223 29.2582C28.3527 28.7321 28.8778 28.2548 29.4948 27.8264L27.8449 26.7367C27.3886 26.4405 26.9927 26.1242 26.6598 25.7878C26.327 25.4543 26.063 25.0489 25.8707 24.5687C25.6527 24.0282 25.601 23.4762 25.7187 22.9155C25.8363 22.3548 26.1319 21.8229 26.6082 21.3198C27.0845 20.8166 27.733 20.3997 28.5479 20.069C29.2136 19.7988 29.9395 19.7441 30.7229 19.9109C31.0586 19.9799 31.3771 20.0834 31.6841 20.2243C31.7644 19.8103 31.8792 19.4624 32.0313 19.1806C32.192 18.9247 32.2809 18.7867 32.301 18.7637L32.7716 18.571L34.2235 22.1593L33.4688 22.467C33.0757 21.9667 32.6224 21.5124 32.1059 21.107C31.6066 20.739 31.1074 20.4744 30.6109 20.3192C30.1145 20.161 29.6153 20.184 29.1131 20.3882C28.7229 20.5463 28.4532 20.8367 28.3011 21.2565C28.149 21.6763 28.1777 22.1449 28.3872 22.6625C28.5565 23.0794 28.8377 23.4474 29.2308 23.7723C29.6268 24.0972 30.0772 24.4192 30.588 24.7384L35.8562 28.0966C35.882 27.8379 35.8935 27.5618 35.8935 27.2686C35.8849 26.5958 35.7615 25.9661 35.5205 25.3738L33.7845 25.4198L33.6697 25.1352L37.156 23.7177L37.2708 24.0023L35.991 25.1812C36.2464 25.8108 36.3813 26.5469 36.4014 27.3893C36.3927 27.8034 36.3813 28.1541 36.3641 28.4388L39.7184 30.5952L40.7743 30.4946L40.8891 30.7792L38.2492 31.8517C37.7327 32.0616 37.2593 32.1593 36.8203 32.1478C36.3841 32.1334 36.0111 32.0156 35.6984 31.7884C35.5865 32.1277 35.4372 32.4296 35.2536 32.6941C34.8146 33.341 34.2178 33.8212 33.4631 34.126C30.1949 35.4543 28.1175 35.0173 27.2251 32.812L27.2337 32.8149ZM34.9179 32.329C35.0872 32.0242 35.2048 31.7568 35.2737 31.5239L29.9309 28.088C29.8477 28.3123 29.8075 28.5768 29.8133 28.8816C29.7903 29.5515 29.9998 30.4256 30.4388 31.5095C30.8061 32.4152 31.2881 33.0334 31.8821 33.364C32.476 33.6947 33.0671 33.7378 33.6611 33.4992C34.1747 33.2893 34.5965 32.8983 34.9208 32.3261L34.9179 32.329Z" fill="white"/>
</svg>
